<svg width="32" height="32" viewBox="0 0 32 32" fill="none" xmlns="http://www.w3.org/2000/svg">
<rect width="32" height="32" fill="#FF1C45"/>
<path d="M26 3V27.7645H21.7791L21.1121 25.3126C19.6468 26.9722 17.5145 28 14.8792 28C9.31329 28 6 23.8886 6 18.8244C6 13.7602 9.43357 9.64882 14.8792 9.64882C17.4926 9.64882 19.6359 10.6874 21.1121 12.3683V3H26ZM19.4828 13.7816H12.5172C11.6315 13.7816 10.9098 14.4882 10.9098 15.3555V22.1756C10.9098 23.0428 11.6315 23.7495 12.5172 23.7495H19.4828C20.3685 23.7495 21.0902 23.0428 21.0902 22.1756V15.3555C21.0902 14.4882 20.3685 13.7816 19.4828 13.7816Z" fill="white"/>
</svg>
